<svg width="1410" height="695" viewBox="0 0 1410 695" fill="none" xmlns="http://www.w3.org/2000/svg">
<g opacity="0.3">
<mask id="mask0_13_350" style="mask-type:alpha" maskUnits="userSpaceOnUse" x="0" y="262" width="611" height="385">
<rect width="611" height="385" transform="matrix(1 0 0 -1 0 647)" fill="url(#paint0_linear_13_350)"/>
</mask>
<g mask="url(#mask0_13_350)">
<rect width="926.345" height="1.96631" transform="matrix(1 0 0 -1 -20.3652 647.909)" fill="black" fill-opacity="0.17" stroke="black" stroke-opacity="0.16" stroke-width="4"/>
<path fill-rule="evenodd" clip-rule="evenodd" d="M-20.0576 555.493H906.5V553.493H-20.0576V555.493Z" fill="black" fill-opacity="0.17" stroke="black" stroke-opacity="0.16" stroke-width="4"/>
<path fill-rule="evenodd" clip-rule="evenodd" d="M-20.0576 463.077H906.5V461.077H-20.0576V463.077Z" fill="black" fill-opacity="0.17" stroke="black" stroke-opacity="0.16" stroke-width="4"/>
<path fill-rule="evenodd" clip-rule="evenodd" d="M-20.3652 370.66H905.98V368.66H-20.3652V370.66Z" fill="black" fill-opacity="0.17" stroke="black" stroke-opacity="0.16" stroke-width="4"/>
<path fill-rule="evenodd" clip-rule="evenodd" d="M-20.0576 278.244H906.5V276.244H-20.0576V278.244Z" fill="black" fill-opacity="0.17" stroke="black" stroke-opacity="0.16" stroke-width="4"/>
<path fill-rule="evenodd" clip-rule="evenodd" d="M2.1333 645.943L2.1333 276.278H0.133301L0.133301 645.943L2.1333 645.943Z" fill="black" fill-opacity="0.17" stroke="black" stroke-opacity="0.16" stroke-width="4"/>
<path fill-rule="evenodd" clip-rule="evenodd" d="M84.6475 645.943L84.6475 276.278H82.6475L82.6475 645.943L84.6475 645.943Z" fill="black" fill-opacity="0.17" stroke="black" stroke-opacity="0.16" stroke-width="4"/>
<path fill-rule="evenodd" clip-rule="evenodd" d="M413.423 645.943L413.423 276.278H412.173L412.173 645.943L413.423 645.943Z" fill="black" fill-opacity="0.17" stroke="black" stroke-opacity="0.16" stroke-width="4"/>
<path fill-rule="evenodd" clip-rule="evenodd" d="M167.151 645.943L167.151 276.278H165.151L165.151 645.943L167.151 645.943Z" fill="black" fill-opacity="0.17" stroke="black" stroke-opacity="0.16" stroke-width="4"/>
<path fill-rule="evenodd" clip-rule="evenodd" d="M578.454 645.943V276.278H577.203V645.943L578.454 645.943Z" fill="black" fill-opacity="0.17" stroke="black" stroke-opacity="0.16" stroke-width="4"/>
<path fill-rule="evenodd" clip-rule="evenodd" d="M495.939 645.943L495.939 276.278H494.689L494.689 645.943L495.939 645.943Z" fill="black" fill-opacity="0.17" stroke="black" stroke-opacity="0.16" stroke-width="4"/>
<path fill-rule="evenodd" clip-rule="evenodd" d="M248.41 645.943L248.41 276.278H247.16L247.16 645.943L248.41 645.943Z" fill="black" fill-opacity="0.17" stroke="black" stroke-opacity="0.16" stroke-width="4"/>
<path fill-rule="evenodd" clip-rule="evenodd" d="M330.926 645.943L330.926 276.278H329.676L329.676 645.943L330.926 645.943Z" fill="black" fill-opacity="0.17" stroke="black" stroke-opacity="0.16" stroke-width="4"/>
</g>
</g>
<rect x="195" y="33" width="1214" height="561" rx="16" fill="#FFF9EB"/>
<g opacity="0.6" clip-path="url(#clip0_13_350)">
<rect width="291.788" height="2" transform="matrix(1 0 0 -1 1073.6 94.2778)" fill="black" fill-opacity="0.17"/>
<path fill-rule="evenodd" clip-rule="evenodd" d="M1073.7 63.4771H1365.55V61.4771H1073.7V63.4771Z" fill="black" fill-opacity="0.17"/>
<path fill-rule="evenodd" clip-rule="evenodd" d="M1073.7 32.676H1365.55V30.676H1073.7V32.676Z" fill="black" fill-opacity="0.17"/>
<path fill-rule="evenodd" clip-rule="evenodd" d="M1073.6 1.87512H1365.39V-0.124878H1073.6V1.87512Z" fill="black" fill-opacity="0.17"/>
<path fill-rule="evenodd" clip-rule="evenodd" d="M1210.24 93.6226V-29.581H1208.24V93.6226L1210.24 93.6226Z" fill="black" fill-opacity="0.17"/>
<path fill-rule="evenodd" clip-rule="evenodd" d="M1262.22 93.6226V-29.581H1260.22V93.6226L1262.22 93.6226Z" fill="black" fill-opacity="0.17"/>
<path fill-rule="evenodd" clip-rule="evenodd" d="M1236.23 93.6226V-29.581H1234.23V93.6226L1236.23 93.6226Z" fill="black" fill-opacity="0.17"/>
<path fill-rule="evenodd" clip-rule="evenodd" d="M1313.8 93.6226V-29.581H1311.8V93.6226L1313.8 93.6226Z" fill="black" fill-opacity="0.17"/>
<path fill-rule="evenodd" clip-rule="evenodd" d="M1288.2 93.6226V-29.581H1286.2V93.6226L1288.2 93.6226Z" fill="black" fill-opacity="0.17"/>
</g>
<path opacity="0.2" d="M1022 48.7521L1028.62 58L1035.25 48.7521L1046.57 50.6777L1044.61 39.5248L1054 33L1044.61 26.4752L1046.57 15.3223L1035.25 17.2479L1028.62 8L1022 17.2479" stroke="#4D5466" stroke-width="2"/>
<path d="M1011.5 7L1018.42 16.6178L1030.24 14.6152L1028.2 26.2143L1038 33L1028.2 39.7857L1030.24 51.3848L1018.42 49.3822L1011.5 59L1004.58 49.3822L992.762 51.3848L994.803 39.7857L985 33L994.803 26.2143L992.762 14.6152L1004.58 16.6178L1011.5 7Z" fill="#DB0007"/>
<mask id="mask1_13_350" style="mask-type:alpha" maskUnits="userSpaceOnUse" x="195" y="64" width="1214" height="530">
<rect x="195" y="64" width="1214" height="530" fill="#FFF9EB"/>
</mask>
<g mask="url(#mask1_13_350)">
<g opacity="0.2" filter="url(#filter0_f_13_350)">
<ellipse cx="939" cy="647" rx="554" ry="288" fill="#FFBC0D"/>
</g>
</g>
<path d="M1145 550.29C1218.33 533.624 1368.2 510.29 1381 550.29C1397 600.29 1232 771.29 1204 650.29C1176 529.29 1215 374.29 1409 423.29" stroke="#4D5466" stroke-width="3"/>
<path d="M1157.74 532.383L1144.03 552.558L1170.03 556.116" stroke="#4D5466" stroke-width="3" stroke-linecap="round"/>
<defs>
<filter id="filter0_f_13_350" x="91" y="65" width="1696" height="1164" filterUnits="userSpaceOnUse" color-interpolation-filters="sRGB">
<feFlood flood-opacity="0" result="BackgroundImageFix"/>
<feBlend mode="normal" in="SourceGraphic" in2="BackgroundImageFix" result="shape"/>
<feGaussianBlur stdDeviation="147" result="effect1_foregroundBlur_13_350"/>
</filter>
<linearGradient id="paint0_linear_13_350" x1="60.7624" y1="16.7205" x2="247.468" y2="125.98" gradientUnits="userSpaceOnUse">
<stop stop-color="#C4C4C4"/>
<stop offset="0.700359" stop-color="#C4C4C4" stop-opacity="0.63"/>
<stop offset="1" stop-color="#C4C4C4" stop-opacity="0"/>
</linearGradient>
<clipPath id="clip0_13_350">
<rect width="106" height="94" fill="white" transform="translate(1208)"/>
</clipPath>
</defs>
</svg>
